<svg xmlns="http://www.w3.org/2000/svg" width="71.911" height="62.422" viewBox="0 0 71.911 62.422">
  <g id="noun_Megaphone_1319842" transform="matrix(0.966, -0.259, 0.259, 0.966, -0.687, 10.369)">
    <path id="Path_9" data-name="Path 9" d="M44.887,22.183V3.424a1.067,1.067,0,0,0-1.652-.9L24.147,14.981H11.631a11.6,11.6,0,0,0-9.151,4.6,5.559,5.559,0,0,0-.374.47c-.1.142-.179.291-.353.612a10.983,10.983,0,0,0-.743,1.39c-.059.139-.1.283-.222.668a10.057,10.057,0,0,0-.428,1.411,11.6,11.6,0,0,0-.281,2.5c0,.174.011.347.032.682A11.576,11.576,0,0,0,6.12,36.824c.166.094.334.179.505.267a11.126,11.126,0,0,0,1.141.492,10.164,10.164,0,0,0,1.066.321c.2.056.4.1.636.155l4.268,12.227a5.334,5.334,0,0,0,2.7,3.068,5.263,5.263,0,0,0,4.081.265,5.185,5.185,0,0,0,3.023-2.665,5.277,5.277,0,0,0,.206-4.017L20.828,38.3h3.317L43.219,51.441a1.069,1.069,0,0,0,1.676-.879L44.9,36.771c0-.011-.005-.021-.005-.032v-4.03a4.53,4.53,0,0,0,2.643-1.235,5.621,5.621,0,0,0,1.312-4.094C48.826,24.282,47.493,22.544,44.887,22.183ZM21.723,47.63a3.149,3.149,0,0,1-.112,2.4A3.062,3.062,0,0,1,19.82,51.6a3.177,3.177,0,0,1-2.44-.16,3.239,3.239,0,0,1-1.63-1.852L11.783,38.222l6.789.072.051.144a.753.753,0,0,0,.04.152ZM19.35,36.164l-8.991-.1c-.008,0-.013-.008-.021-.008C10.308,36.052,10.1,36,10.07,36c-.241-.045-.47-.1-.706-.166a8.193,8.193,0,0,1-.869-.262,9.585,9.585,0,0,1-.927-.4l-.412-.214a9.553,9.553,0,0,1-4.926-7.954l-.019-.374a9.468,9.468,0,0,1,.235-2.061,8.616,8.616,0,0,1,.371-1.192c.008-.021.15-.47.158-.494a9.071,9.071,0,0,1,.612-1.131c.008-.011.136-.246.144-.259a2.327,2.327,0,0,1,.131-.233,3.565,3.565,0,0,1,.235-.289l.2-.241a9.329,9.329,0,0,1,7.328-3.616H23.391V36.164Zm6.182.5V16.627L42.749,5.4V42.426a.039.039,0,0,0,.005.019l0,6.078Zm20.483-6.706a2.327,2.327,0,0,1-1.125.543V24.364c1.628.369,1.809,1.633,1.817,3.041A3.655,3.655,0,0,1,46.015,29.961Z" transform="translate(0 0)" fill="#002738"/>
    <path id="Path_10" data-name="Path 10" d="M21.5,5.7a1.069,1.069,0,0,0-1.117,1.823c5.011,3.068,7.668,7.232,8.122,12.727a15.918,15.918,0,0,1-7.393,14.817,1.068,1.068,0,1,0,1.141,1.807,18.034,18.034,0,0,0,8.381-16.8C30.12,13.858,27.132,9.157,21.5,5.7Z" transform="translate(33.104 5.342)" fill="#002738"/>
    <path id="Path_11" data-name="Path 11" d="M26.083,17.4c-.147-4.1-2.1-7.179-5.968-9.421a1.07,1.07,0,1,0-1.072,1.852c3.229,1.871,4.787,4.3,4.9,7.646.123,3.44-1.328,6-4.568,8.055a1.069,1.069,0,1,0,1.144,1.807C24.362,24.9,26.233,21.559,26.083,17.4Z" transform="translate(30.825 9.166)" fill="#002738"/>
  </g>
</svg>
