<svg xmlns="http://www.w3.org/2000/svg" width="22.32" height="15.243" viewBox="0 0 22.32 15.243">
  <g id="noun_Mail_1571628_000000" transform="translate(-9 -974.362)">
    <path id="Path_58" data-name="Path 58" d="M11.178,974.362A2.185,2.185,0,0,0,9,976.54v10.888a2.185,2.185,0,0,0,2.178,2.178H29.142a2.185,2.185,0,0,0,2.178-2.178V976.54a2.185,2.185,0,0,0-2.178-2.178Zm0,1.089H29.142a1.091,1.091,0,0,1,.434.094l-8.736,7.8a.955.955,0,0,1-1.344,0l-8.753-7.8A1.091,1.091,0,0,1,11.178,975.451Zm-1.08.978,6.26,5.58-6.15,5.912a1.126,1.126,0,0,1-.119-.493V976.54c0-.038,0-.074.008-.111Zm20.125,0c0,.037.008.072.008.111v10.888a1.126,1.126,0,0,1-.119.493L23.979,982l6.243-5.571Zm-7.06,6.3,6.005,5.784H11.152l6.022-5.776,1.6,1.421a2.092,2.092,0,0,0,2.79,0l1.6-1.429Z" fill="#fff"/>
  </g>
</svg>
