<svg xmlns="http://www.w3.org/2000/svg" width="36.192" height="40.2" viewBox="0 0 36.192 40.2">
  <g id="noun_FAQ_170995" transform="translate(-20.2 -16.9)">
    <path id="Path_98" data-name="Path 98" d="M56.392,25.037A8.138,8.138,0,0,0,48.255,16.9H28.337A8.138,8.138,0,0,0,20.2,25.037V40.886A8.152,8.152,0,0,0,26.94,48.9v6.862a1.458,1.458,0,0,0,.729,1.215,1.1,1.1,0,0,0,.607.121,1.22,1.22,0,0,0,.789-.243l4.069-2.976a25.568,25.568,0,0,1,15.121-4.919,8.138,8.138,0,0,0,8.137-8.137ZM53.72,40.886a5.416,5.416,0,0,1-5.4,5.4,28.54,28.54,0,0,0-16.7,5.4l-1.943,1.4V47.627a1.348,1.348,0,0,0-1.336-1.336,5.417,5.417,0,0,1-5.4-5.4V25.037a5.416,5.416,0,0,1,5.4-5.4H48.316a5.416,5.416,0,0,1,5.4,5.4Z" fill="#00b1f2"/>
    <path id="Path_99" data-name="Path 99" d="M47.133,31A4.187,4.187,0,0,0,42.7,35.251a1.336,1.336,0,1,0,2.672,0c0-1.457,1.579-1.518,1.761-1.518s1.761.061,1.761,1.518v.3a1.543,1.543,0,0,1-.85,1.4l-1.215.668A1.969,1.969,0,0,0,45.8,39.38v1.093a1.336,1.336,0,0,0,2.672,0v-.668l.85-.425a4.226,4.226,0,0,0,2.247-3.765v-.364A4.22,4.22,0,0,0,47.133,31Z" transform="translate(-8.837 -5.538)" fill="#00b1f2"/>
    <path id="Path_100" data-name="Path 100" d="M48.94,51.3a1.7,1.7,0,0,0,0,3.4A1.7,1.7,0,0,0,48.94,51.3Z" transform="translate(-10.644 -13.511)" fill="#00b1f2"/>
  </g>
</svg>
