<svg xmlns="http://www.w3.org/2000/svg" width="29.124" height="28.531" viewBox="0 0 29.124 28.531">
  <g id="noun_Five-star_rank_537693" data-name="noun_Five-star rank_537693" transform="translate(-28.77 -29.438)">
    <g id="Group_55" data-name="Group 55" transform="translate(28.77 29.438)">
      <g id="Group_54" data-name="Group 54" transform="translate(0 0)">
        <g id="Path_93" data-name="Path 93" transform="translate(-17.139 -13.938)" fill="none">
          <path d="M32.006,14.084l1.41,2.869c.049.1.1.146.195.146l3.161.486a.273.273,0,0,1,.146.486l-2.286,2.237a.372.372,0,0,0-.1.243l.535,3.161a.267.267,0,0,1-.389.292L31.812,22.5a.217.217,0,0,0-.243,0L28.7,24.005a.267.267,0,0,1-.389-.292l.535-3.161c0-.1,0-.195-.1-.243l-2.286-2.237a.29.29,0,0,1,.146-.486l3.161-.486c.1,0,.146-.049.195-.146l1.41-2.869C31.568,13.889,31.909,13.889,32.006,14.084Z" stroke="none"/>
          <path d="M 31.68991470336914 15.70770835876465 L 30.86081695556641 17.39450073242188 L 30.85930633544922 17.3975715637207 L 30.8577766418457 17.40063095092773 C 30.58670043945313 17.94272804260254 30.14127349853516 18.0691089630127 29.88032150268555 18.09390258789063 L 28.18082809448242 18.35536193847656 L 29.37730026245117 19.5263786315918 C 29.61922073364258 19.70525360107422 29.84475708007813 20.01591491699219 29.84475708007813 20.55239105224609 L 29.84475708007813 20.63641166687012 L 29.83073425292969 20.71925163269043 L 29.54061889648438 22.43356704711914 L 31.03848648071289 21.64655113220215 C 31.22261428833008 21.52602005004883 31.44094657897949 21.4613208770752 31.67167472839355 21.4613208770752 C 31.86987495422363 21.4613208770752 32.0728645324707 21.51044082641602 32.25871276855469 21.60336112976074 L 32.26772308349609 21.60786056518555 L 32.27663421630859 21.61255073547363 L 33.83921051025391 22.43356704711914 L 33.54909515380859 20.71925163269043 L 33.53507614135742 20.63641166687012 L 33.53507614135742 20.55239105224609 C 33.53507614135742 20.20166206359863 33.68093490600586 19.84641075134277 33.92523574829102 19.60210037231445 L 33.92903518676758 19.59830093383789 L 33.93288421630859 19.59454154968262 L 35.19900131225586 18.35536193847656 L 33.49951171875 18.09390258789063 C 33.23854064941406 18.06910514831543 32.79307174682617 17.94271087646484 32.52201461791992 17.40056037902832 L 32.5205078125 17.39753150939941 L 32.51901245117188 17.39450073242188 L 31.68991470336914 15.70770835876465 M 31.72639465332031 13.93799591064453 C 31.84798240661621 13.93799591064453 31.95741081237793 13.98663139343262 32.00604248046875 14.08390045166016 L 33.41646575927734 16.9533805847168 C 33.46509552001953 17.05065155029297 33.51373291015625 17.09929084777832 33.61100769042969 17.09929084777832 L 36.77229309082031 17.58564186096191 C 37.01547622680664 17.6342716217041 37.11274719238281 17.87745094299316 36.91819763183594 18.07199096679688 L 34.63234710693359 20.30921173095703 C 34.58371734619141 20.35784149169922 34.53507614135742 20.45511054992676 34.53507614135742 20.55239105224609 L 35.07006454467773 23.71367263793945 C 35.10829925537109 23.90487289428711 34.96611785888672 24.03595352172852 34.80904388427734 24.03595352172852 C 34.76634216308594 24.03595352172852 34.72255706787109 24.02627563476563 34.68097686767578 24.0054817199707 L 31.81150436401367 22.4977912902832 C 31.76287078857422 22.47347640991211 31.71423530578613 22.46131896972656 31.67167854309082 22.46131896972656 C 31.62912368774414 22.46131896972656 31.5926456451416 22.47347640991211 31.56832504272461 22.4977912902832 L 28.69885635375977 24.0054817199707 C 28.65728378295898 24.02626800537109 28.61347961425781 24.03595352172852 28.5707893371582 24.03595352172852 C 28.4136962890625 24.03595352172852 28.27152633666992 23.90488815307617 28.30976486206055 23.71367263793945 L 28.84475708007813 20.55239105224609 C 28.84475708007813 20.45511054992676 28.84475708007813 20.35784149169922 28.74748611450195 20.30921173095703 L 26.46163558959961 18.07199096679688 C 26.31572341918945 17.92609214782715 26.36436462402344 17.6342716217041 26.60753631591797 17.58564186096191 L 29.76882553100586 17.09929084777832 C 29.86609649658203 17.09929084777832 29.91472625732422 17.05065155029297 29.96336364746094 16.9533805847168 L 31.37378692626953 14.08390045166016 C 31.47105979919434 13.98663139343262 31.60480690002441 13.93799591064453 31.72639465332031 13.93799591064453 Z" stroke="none" fill="#002738"/>
        </g>
        <g id="Path_94" data-name="Path 94" transform="translate(-21.008 -16.957)" fill="none">
          <path d="M45.116,24.35l1.41,2.869c.049.1.1.146.195.146l3.161.486a.273.273,0,0,1,.146.486l-2.286,2.237a.371.371,0,0,0-.1.243l.535,3.161a.267.267,0,0,1-.389.292l-2.869-1.508a.217.217,0,0,0-.243,0l-2.869,1.508a.267.267,0,0,1-.389-.292l.535-3.161c0-.1,0-.195-.1-.243l-2.286-2.237a.29.29,0,0,1,.146-.486l3.161-.486c.1,0,.146-.049.195-.146l1.41-2.869C44.678,24.106,45.019,24.106,45.116,24.35Z" stroke="none"/>
          <path d="M 44.79992294311523 25.97343826293945 L 43.97082138061523 27.66023063659668 L 43.96932983398438 27.66326141357422 L 43.96782302856445 27.66629028320313 C 43.69677352905273 28.20843887329102 43.25129318237305 28.3348274230957 42.99031448364258 28.35962295532227 L 41.29083251953125 28.6210880279541 L 42.4873046875 29.79210662841797 C 42.72922897338867 29.97098350524902 42.95476150512695 30.28164291381836 42.95476150512695 30.81811141967773 L 42.95476150512695 30.90213012695313 L 42.94074249267578 30.98497009277344 L 42.65062713623047 32.69929504394531 L 44.14848709106445 31.91228866577148 C 44.33261108398438 31.7917423248291 44.55093002319336 31.72705078125 44.78168106079102 31.72705078125 C 44.97988128662109 31.72705078125 45.1828727722168 31.77617073059082 45.36872100830078 31.86909103393555 L 45.37773132324219 31.87359046936035 L 45.38664245605469 31.87828063964844 L 46.94921875 32.69929504394531 L 46.65910339355469 30.98497009277344 L 46.64508056640625 30.90213012695313 L 46.64508056640625 30.81811141967773 C 46.64508056640625 30.46734046936035 46.79096984863281 30.11207008361816 47.03533172607422 29.86775970458984 L 47.03909301757813 29.86400032043457 L 47.04289245605469 29.86027145385742 L 48.30900573730469 28.62108612060547 L 46.60951614379883 28.35962104797363 C 46.34856033325195 28.3348274230957 45.90313720703125 28.20844841003418 45.63206100463867 27.66636085510254 L 45.63053131103516 27.66330146789551 L 45.62902069091797 27.66023063659668 L 44.79992294311523 25.97343826293945 M 44.83639907836914 24.16725158691406 C 44.95798492431641 24.16725158691406 45.06741714477539 24.22804641723633 45.11605072021484 24.34963226318359 L 46.52647018432617 27.2191104888916 C 46.57511138916016 27.31638145446777 46.62374114990234 27.36501121520996 46.72101211547852 27.36501121520996 L 49.88230133056641 27.85136985778809 C 50.12547302246094 27.90000152587891 50.22275161743164 28.14318084716797 50.02820205688477 28.33772087097168 L 47.74236297607422 30.5749397277832 C 47.69372177124023 30.62357139587402 47.64508056640625 30.72084045410156 47.64508056640625 30.81811141967773 L 48.18007278442383 33.97940063476563 C 48.21831512451172 34.17060089111328 48.07612991333008 34.30168151855469 47.9190559387207 34.30168151855469 C 47.8763542175293 34.30168151855469 47.83257293701172 34.29199981689453 47.79099273681641 34.27120971679688 L 44.92151260375977 32.76351928710938 C 44.87287521362305 32.73920440673828 44.82424163818359 32.72705078125 44.78168487548828 32.72705078125 C 44.73913192749023 32.72705078125 44.70265579223633 32.73920440673828 44.67834091186523 32.76351928710938 L 41.80886077880859 34.27120971679688 C 41.76729202270508 34.29199600219727 41.72348785400391 34.30168151855469 41.6807975769043 34.30168151855469 C 41.52370834350586 34.30168151855469 41.38153457641602 34.17061614990234 41.41978073120117 33.97940063476563 L 41.95476150512695 30.81811141967773 C 41.95476150512695 30.72084045410156 41.95476150512695 30.62357139587402 41.85749053955078 30.5749397277832 L 39.57164001464844 28.33772087097168 C 39.42573165893555 28.19181060791016 39.47437286376953 27.90000152587891 39.71755218505859 27.85136985778809 L 42.87882995605469 27.36501121520996 C 42.97610092163086 27.36501121520996 43.02474212646484 27.31638145446777 43.07337188720703 27.2191104888916 L 44.48379135131836 24.34963226318359 C 44.58106231689453 24.22804641723633 44.71480941772461 24.16725158691406 44.83639907836914 24.16725158691406 Z" stroke="none" fill="#002738"/>
        </g>
        <g id="Path_95" data-name="Path 95" transform="translate(-13.27 -16.957)" fill="none">
          <path d="M18.9,24.35l1.41,2.869c.049.1.1.146.195.146l3.161.486a.273.273,0,0,1,.146.486l-2.286,2.237a.372.372,0,0,0-.1.243l.535,3.161a.267.267,0,0,1-.389.292L18.7,32.764a.217.217,0,0,0-.243,0l-2.869,1.508a.267.267,0,0,1-.389-.292l.535-3.161c0-.1,0-.195-.1-.243l-2.286-2.237a.29.29,0,0,1,.146-.486l3.161-.486c.1,0,.146-.049.195-.146l1.41-2.869C18.458,24.106,18.8,24.106,18.9,24.35Z" stroke="none"/>
          <path d="M 18.57991600036621 25.97343826293945 L 17.75081634521484 27.66023063659668 L 17.74932670593262 27.66326141357422 L 17.74781608581543 27.66629028320313 C 17.47676849365234 28.20843887329102 17.03128814697266 28.3348274230957 16.77031135559082 28.35962295532227 L 15.07082557678223 28.62108612060547 L 16.26730155944824 29.79210662841797 C 16.50922203063965 29.97098350524902 16.73475646972656 30.28164291381836 16.73475646972656 30.81811141967773 L 16.73475646972656 30.90213012695313 L 16.72073745727539 30.98497009277344 L 16.43062400817871 32.69929504394531 L 17.92848777770996 31.91227912902832 C 18.11261558532715 31.79174995422363 18.33094787597656 31.72705078125 18.56167602539063 31.72705078125 C 18.7598762512207 31.72705078125 18.96286582946777 31.77617073059082 19.14871597290039 31.86909103393555 L 19.1577262878418 31.87359046936035 L 19.1666374206543 31.87828063964844 L 20.72921371459961 32.69929504394531 L 20.43909645080566 30.98497009277344 L 20.42507743835449 30.90213012695313 L 20.42507743835449 30.81811141967773 C 20.42507743835449 30.46738052368164 20.57093620300293 30.11214065551758 20.81523704528809 29.86783027648926 L 20.81904602050781 29.8640308380127 L 20.8228874206543 29.86027145385742 L 22.08901214599609 28.6210880279541 L 20.3895092010498 28.35962104797363 C 20.12855529785156 28.3348274230957 19.68313026428223 28.20844841003418 19.41205596923828 27.66636085510254 L 19.41052627563477 27.66330146789551 L 19.40901565551758 27.66023063659668 L 18.57991600036621 25.97343826293945 M 18.61639213562012 24.16725158691406 C 18.73798179626465 24.16725158691406 18.847412109375 24.22804641723633 18.89604568481445 24.34963226318359 L 20.30646705627441 27.2191104888916 C 20.35510635375977 27.31638145446777 20.40373611450195 27.36501121520996 20.50100708007813 27.36501121520996 L 23.66229629516602 27.85136985778809 C 23.90547561645508 27.90000152587891 24.00274658203125 28.14318084716797 23.80820655822754 28.33772087097168 L 21.52234649658203 30.5749397277832 C 21.47371673583984 30.62357139587402 21.42507553100586 30.72084045410156 21.42507553100586 30.81811141967773 L 21.96006774902344 33.97940063476563 C 21.9983024597168 34.17060089111328 21.85612297058105 34.30168151855469 21.69904899597168 34.30168151855469 C 21.65634727478027 34.30168151855469 21.61256790161133 34.29199981689453 21.57098770141602 34.27120971679688 L 18.70150566101074 32.76351928710938 C 18.65287208557129 32.73920440673828 18.6042366027832 32.72705078125 18.56167984008789 32.72705078125 C 18.51912498474121 32.72705078125 18.48264694213867 32.73920440673828 18.45832633972168 32.76351928710938 L 15.5888557434082 34.27120971679688 C 15.54728698730469 34.29199600219727 15.50348281860352 34.30168151855469 15.46079444885254 34.30168151855469 C 15.30370140075684 34.30168151855469 15.16152954101563 34.17061614990234 15.19977569580078 33.97940063476563 L 15.73475646972656 30.81811141967773 C 15.73475646972656 30.72084045410156 15.73475646972656 30.62357139587402 15.63748741149902 30.5749397277832 L 13.35163688659668 28.33772087097168 C 13.20572662353516 28.19181060791016 13.25436592102051 27.90000152587891 13.49753570556641 27.85136985778809 L 16.65882682800293 27.36501121520996 C 16.75609588623047 27.36501121520996 16.80473709106445 27.31638145446777 16.85336685180664 27.2191104888916 L 18.26378631591797 24.34963226318359 C 18.36105728149414 24.22804641723633 18.49480438232422 24.16725158691406 18.61639213562012 24.16725158691406 Z" stroke="none" fill="#002738"/>
        </g>
        <g id="Path_96" data-name="Path 96" transform="translate(-14.675 -21.641)" fill="none">
          <path d="M23.657,40.22l1.41,2.869c.049.1.1.146.195.146l3.161.486a.273.273,0,0,1,.146.486l-2.286,2.237a.372.372,0,0,0-.1.243l.535,3.161a.267.267,0,0,1-.389.292l-2.869-1.508a.217.217,0,0,0-.243,0L20.35,50.141a.267.267,0,0,1-.389-.292l.535-3.161c0-.1,0-.195-.1-.243l-2.286-2.237a.29.29,0,0,1,.146-.486l3.161-.486c.1,0,.146-.049.195-.146l1.41-2.869C23.268,39.976,23.56,39.976,23.657,40.22Z" stroke="none"/>
          <path d="M 23.34091758728027 41.84343719482422 L 22.51181793212891 43.53023147583008 L 22.51030731201172 43.53330230712891 L 22.5087776184082 43.53636169433594 C 22.23770332336426 44.07844924926758 21.79228019714355 44.20482635498047 21.53132438659668 44.22962188720703 L 19.83182334899902 44.4910888671875 L 21.02830123901367 45.66210556030273 C 21.27022361755371 45.84098434448242 21.49575805664063 46.15164566040039 21.49575805664063 46.6881217956543 L 21.49575805664063 46.77214050292969 L 21.48173904418945 46.85498046875 L 21.19162750244141 48.56929397583008 L 22.68948936462402 47.78227996826172 C 22.87361717224121 47.66175079345703 23.09194946289063 47.59704971313477 23.32267761230469 47.59704971313477 C 23.52087783813477 47.59704971313477 23.72386741638184 47.64617156982422 23.90971755981445 47.73908996582031 L 23.91872787475586 47.74359130859375 L 23.92763900756836 47.7482795715332 L 25.49021530151367 48.56929397583008 L 25.20009803771973 46.85498046875 L 25.18607902526855 46.77214050292969 L 25.18607902526855 46.6881217956543 C 25.18607902526855 46.3373908996582 25.33193778991699 45.98213958740234 25.57623863220215 45.73783111572266 L 25.58003807067871 45.73403167724609 L 25.58388900756836 45.73027038574219 L 26.85000801086426 44.4910888671875 L 25.15051078796387 44.22962188720703 C 24.88955688476563 44.20482635498047 24.44413185119629 44.07844924926758 24.17305755615234 43.53636169433594 L 24.17152786254883 43.53330230712891 L 24.17001724243164 43.53023147583008 L 23.34091758728027 41.84343719482422 M 23.39563369750977 40.03724670410156 C 23.51114273071289 40.03724670410156 23.60841369628906 40.09804153442383 23.65704727172852 40.21963119506836 L 25.06746864318848 43.089111328125 C 25.11610794067383 43.18638229370117 25.16473770141602 43.23501205444336 25.26200866699219 43.23501205444336 L 28.42329788208008 43.72137069702148 C 28.66647911071777 43.77000045776367 28.76374816894531 44.01317977905273 28.56919860839844 44.20772171020508 L 26.28334808349609 46.44494247436523 C 26.23471832275391 46.49357223510742 26.18607902526855 46.59085083007813 26.18607902526855 46.6881217956543 L 26.72106742858887 49.84939956665039 C 26.75930404663086 50.04060363769531 26.61712837219238 50.17168426513672 26.46005439758301 50.17168426513672 C 26.4173526763916 50.17168426513672 26.37356948852539 50.16200637817383 26.33198738098145 50.14121246337891 L 23.4625072479248 48.63352203369141 C 23.41387367248535 48.60920715332031 23.36523818969727 48.59704971313477 23.32268142700195 48.59704971313477 C 23.28012657165527 48.59704971313477 23.24364852905273 48.60920715332031 23.21932792663574 48.63352203369141 L 20.34985733032227 50.14121246337891 C 20.30828666687012 50.16199493408203 20.26448249816895 50.17168045043945 20.2217903137207 50.17168045043945 C 20.064697265625 50.17168045043945 19.92253112792969 50.04061889648438 19.96077728271484 49.84939956665039 L 20.49575805664063 46.6881217956543 C 20.49575805664063 46.59085083007813 20.49575805664063 46.49357223510742 20.39848899841309 46.44494247436523 L 18.11262893676758 44.20772171020508 C 17.96672821044922 44.06181335449219 18.01536750793457 43.77000045776367 18.25853729248047 43.72137069702148 L 21.41982841491699 43.23501205444336 C 21.51709747314453 43.23501205444336 21.56572914123535 43.18638229370117 21.6143684387207 43.089111328125 L 23.02478790283203 40.21963119506836 C 23.14637756347656 40.09804153442383 23.28012657165527 40.03724670410156 23.39563369750977 40.03724670410156 Z" stroke="none" fill="#002738"/>
        </g>
        <g id="Path_97" data-name="Path 97" transform="translate(-19.603 -21.641)" fill="none">
          <path d="M40.355,40.22l1.41,2.869c.049.1.1.146.195.146l3.161.486a.273.273,0,0,1,.146.486l-2.286,2.237a.372.372,0,0,0-.1.243l.535,3.161a.267.267,0,0,1-.389.292l-2.869-1.508a.217.217,0,0,0-.243,0l-2.869,1.508a.267.267,0,0,1-.389-.292l.535-3.161c0-.1,0-.195-.1-.243l-2.286-2.237a.29.29,0,0,1,.146-.486l3.161-.486c.1,0,.146-.049.195-.146l1.41-2.869C39.966,39.976,40.258,39.976,40.355,40.22Z" stroke="none"/>
          <path d="M 40.03892135620117 41.84343719482422 L 39.20981979370117 43.53023147583008 L 39.20832824707031 43.53326034545898 L 39.20682144165039 43.53629302978516 C 38.93577194213867 44.07844161987305 38.49029159545898 44.20483016967773 38.22931289672852 44.2296257019043 L 36.52982330322266 44.4910888671875 L 37.72630310058594 45.66210556030273 C 37.96822357177734 45.84098434448242 38.19375991821289 46.15164566040039 38.19375991821289 46.6881217956543 L 38.19375991821289 46.77214050292969 L 38.17974090576172 46.85498046875 L 37.88962173461914 48.56929779052734 L 39.38749313354492 47.78227996826172 C 39.57161712646484 47.66175079345703 39.78995132446289 47.59704971313477 40.02067947387695 47.59704971313477 C 40.21887969970703 47.59704971313477 40.42187118530273 47.64617156982422 40.60771942138672 47.73908996582031 L 40.61672973632813 47.74359130859375 L 40.62564086914063 47.7482795715332 L 42.18821716308594 48.56929779052734 L 41.89810180664063 46.85498046875 L 41.88407897949219 46.77214050292969 L 41.88407897949219 46.6881217956543 C 41.88407897949219 46.3373908996582 42.02994155883789 45.98213958740234 42.27423858642578 45.73783111572266 L 42.27804183959961 45.73403167724609 L 42.28189086914063 45.73027038574219 L 43.54801177978516 44.4910888671875 L 41.84852600097656 44.2296257019043 C 41.58754730224609 44.20483016967773 41.14206695556641 44.07844161987305 40.87102127075195 43.53629302978516 L 40.86951065063477 43.53326034545898 L 40.86801910400391 43.53023147583008 L 40.03892135620117 41.84343719482422 M 40.09363555908203 40.03724670410156 C 40.20914459228516 40.03724670410156 40.30641555786133 40.09804153442383 40.35504913330078 40.21963119506836 L 41.76546859741211 43.089111328125 C 41.8140983581543 43.18638229370117 41.86273956298828 43.23501205444336 41.96001052856445 43.23501205444336 L 45.12129974365234 43.72137069702148 C 45.36447143554688 43.77000045776367 45.46173858642578 44.01317977905273 45.2672004699707 44.20772171020508 L 42.98134994506836 46.44494247436523 C 42.93272018432617 46.49357223510742 42.88407897949219 46.59085083007813 42.88407897949219 46.6881217956543 L 43.41907119750977 49.84939956665039 C 43.45730590820313 50.04060363769531 43.31513214111328 50.17168426513672 43.15805053710938 50.17168426513672 C 43.11534881591797 50.17168426513672 43.07156372070313 50.16200637817383 43.02997970581055 50.14121246337891 L 40.1605110168457 48.63352203369141 C 40.11187362670898 48.60920715332031 40.06324005126953 48.59704971313477 40.02068328857422 48.59704971313477 C 39.97812652587891 48.59704971313477 39.941650390625 48.60920715332031 39.91733169555664 48.63352203369141 L 37.04785919189453 50.14121246337891 C 37.00629043579102 50.16199493408203 36.96248626708984 50.17168045043945 36.91979598999023 50.17168045043945 C 36.7627067565918 50.17168045043945 36.62053298950195 50.04061889648438 36.65877151489258 49.84939956665039 L 37.19375991821289 46.6881217956543 C 37.19375991821289 46.59085083007813 37.19375991821289 46.49357223510742 37.09648895263672 46.44494247436523 L 34.81063079833984 44.20772171020508 C 34.66473007202148 44.06181335449219 34.71337127685547 43.77000045776367 34.95653915405273 43.72137069702148 L 38.11782836914063 43.23501205444336 C 38.2150993347168 43.23501205444336 38.26374053955078 43.18638229370117 38.31237030029297 43.089111328125 L 39.7227897644043 40.21963119506836 C 39.84437942504883 40.09804153442383 39.97812652587891 40.03724670410156 40.09363555908203 40.03724670410156 Z" stroke="none" fill="#002738"/>
        </g>
      </g>
    </g>
  </g>
</svg>
