<svg xmlns="http://www.w3.org/2000/svg" width="46.695" height="65" viewBox="0 0 46.695 65">
  <g id="noun_Meeting_969516" transform="translate(-14.746 1.5)">
    <path id="Path_11" data-name="Path 11" d="M74.021,24.777A16.365,16.365,0,1,0,57.657,41.143,16.383,16.383,0,0,0,74.021,24.777Zm-27.214,0a10.849,10.849,0,1,1,10.85,10.849A10.86,10.86,0,0,1,46.808,24.777Z" transform="translate(-19.363 -8.413)" fill="#002738" stroke="#fff" stroke-width="3"/>
    <path id="Path_12" data-name="Path 12" d="M38.23,46.22v3.754a2.757,2.757,0,0,0,5.515.009V46.22A11.777,11.777,0,0,1,55.5,34.448h9.138A11.769,11.769,0,0,1,76.323,44.835a12.574,12.574,0,0,1,.085,1.385v3.866a2.758,2.758,0,0,0,5.517,0V46.22a18.1,18.1,0,0,0-.121-2.007,17.292,17.292,0,0,0-17.168-15.28H55.5A17.3,17.3,0,0,0,38.23,46.22Z" transform="translate(-21.984 9.156)" fill="#002738" stroke="#fff" stroke-width="3"/>
  </g>
</svg>
