<svg xmlns="http://www.w3.org/2000/svg" width="375.202" height="258.948" viewBox="0 0 375.202 258.948">
  <path id="logo_too-doo" data-name="logo too-doo" d="M374.065,89.294h-.948a109.751,109.751,0,0,0-40.209,10.277,107.656,107.656,0,0,0-27.039,17.86L256.88,169.413l-29.334,31.08s-20.4,24.544-48.839,28.785h-8.331a53.928,53.928,0,0,1,0-107.856h.948a50.485,50.485,0,0,1,10.726,1.247l2.345.549a64.853,64.853,0,0,1,35.869,21.551s9.279,11.524,19.955,12.721a9.974,9.974,0,0,0,1.746,0,14.966,14.966,0,0,0,14.966-14.966V21.049a14.966,14.966,0,1,0-29.583,0v89.8a86.7,86.7,0,1,0-56.971,151.906h1.946a112.7,112.7,0,0,0,26.241-4.689,110.847,110.847,0,0,0,35.42-17.71c11.574-8.78,37.166-36.418,53.878-54.876,9.229-10.277,15.764-17.81,15.764-17.81l17.161-19.406s19.955-25.991,53.279-25.991a53.928,53.928,0,0,1,0,107.856,27.339,27.339,0,0,1-4.989-.249,53.429,53.429,0,0,1-22.15-7.134,122.025,122.025,0,0,1-31.279-23.4s-11.823-8.88-19.356-2.045l-4.989,4.989-1.447,1.5s-8.032,8.581,3.243,19.206c0,0,27.188,33.773,69.842,39.012h.7l2.494.249h7.882a86.754,86.754,0,0,0,0-173.457Z" transform="translate(-83.486 -3.803)" fill="#fff" opacity="0.242"/>
</svg>
