<svg xmlns="http://www.w3.org/2000/svg" width="62.516" height="62.515" viewBox="0 0 62.516 62.515">
  <path id="noun_Gear_31188" d="M36.009,67.017a31.211,31.211,0,0,1-3.872-.242,3.453,3.453,0,0,1-3.019-3.42v-3.72a.665.665,0,0,0-.48-.658,23.975,23.975,0,0,1-3.658-1.514.671.671,0,0,0-.8.126l-2.63,2.63a3.425,3.425,0,0,1-2.437,1.013,3.465,3.465,0,0,1-2.118-.73,31.2,31.2,0,0,1-5.474-5.474,3.453,3.453,0,0,1,.283-4.553l2.63-2.63a.665.665,0,0,0,.126-.8,23.979,23.979,0,0,1-1.515-3.659.666.666,0,0,0-.659-.481H8.664a3.453,3.453,0,0,1-3.421-3.019,31.245,31.245,0,0,1,0-7.744,3.453,3.453,0,0,1,3.421-3.019h3.719a.664.664,0,0,0,.658-.48,24.034,24.034,0,0,1,1.515-3.658.664.664,0,0,0-.126-.8l-2.63-2.63a3.453,3.453,0,0,1-.285-4.553,31.243,31.243,0,0,1,5.475-5.475,3.466,3.466,0,0,1,2.117-.729A3.424,3.424,0,0,1,21.543,11.8l2.63,2.63a.669.669,0,0,0,.8.126,24.046,24.046,0,0,1,3.658-1.515.665.665,0,0,0,.482-.659V8.664a3.453,3.453,0,0,1,3.018-3.421,31.345,31.345,0,0,1,7.744,0A3.453,3.453,0,0,1,42.9,8.664v3.719a.665.665,0,0,0,.48.658,24.034,24.034,0,0,1,3.658,1.515.671.671,0,0,0,.8-.126l2.63-2.63a3.425,3.425,0,0,1,2.437-1.013,3.466,3.466,0,0,1,2.117.729A31.188,31.188,0,0,1,60.5,16.99a3.452,3.452,0,0,1-.284,4.554l-2.63,2.63a.663.663,0,0,0-.126.8,24.083,24.083,0,0,1,1.513,3.659.666.666,0,0,0,.659.481h3.72a3.453,3.453,0,0,1,3.421,3.019,31.173,31.173,0,0,1,0,7.743,3.453,3.453,0,0,1-3.42,3.02h-3.72a.665.665,0,0,0-.658.48,23.953,23.953,0,0,1-1.514,3.658.665.665,0,0,0,.126.8l2.63,2.63a3.453,3.453,0,0,1,.284,4.553A31.235,31.235,0,0,1,55.028,60.5a3.468,3.468,0,0,1-2.117.729,3.421,3.421,0,0,1-2.437-1.013l-2.63-2.63a.666.666,0,0,0-.8-.126,24.091,24.091,0,0,1-3.66,1.514.665.665,0,0,0-.481.658v3.72a3.454,3.454,0,0,1-3.019,3.421A31.2,31.2,0,0,1,36.009,67.017ZM24.654,54.624a3.485,3.485,0,0,1,1.586.387,21.227,21.227,0,0,0,3.238,1.34,3.437,3.437,0,0,1,2.4,3.283v3.72a.684.684,0,0,0,.606.686,28.528,28.528,0,0,0,7.058,0,.683.683,0,0,0,.605-.685v-3.72a3.436,3.436,0,0,1,2.4-3.283,21.368,21.368,0,0,0,3.239-1.34,3.482,3.482,0,0,1,4.015.628l2.63,2.629a.682.682,0,0,0,.913.056,28.457,28.457,0,0,0,4.99-4.99.684.684,0,0,0-.057-.913l-2.63-2.63a3.438,3.438,0,0,1-.628-4.014,21.2,21.2,0,0,0,1.34-3.238,3.438,3.438,0,0,1,3.283-2.4h3.72a.683.683,0,0,0,.686-.606,28.4,28.4,0,0,0,0-7.058.684.684,0,0,0-.685-.605h-3.72a3.436,3.436,0,0,1-3.283-2.4,21.47,21.47,0,0,0-1.34-3.239,3.435,3.435,0,0,1,.628-4.014l2.63-2.63a.684.684,0,0,0,.057-.912,28.469,28.469,0,0,0-4.991-4.992.682.682,0,0,0-.913.057l-2.63,2.63a3.481,3.481,0,0,1-4.014.628,21.309,21.309,0,0,0-3.238-1.341,3.436,3.436,0,0,1-2.4-3.283V8.665a.684.684,0,0,0-.605-.686,28.573,28.573,0,0,0-7.06,0,.682.682,0,0,0-.6.685v3.72a3.436,3.436,0,0,1-2.4,3.283,21.347,21.347,0,0,0-3.238,1.34,3.481,3.481,0,0,1-4.015-.628L19.6,13.749a.683.683,0,0,0-.913-.057,28.472,28.472,0,0,0-4.992,4.992.685.685,0,0,0,.057.913l2.63,2.63a3.438,3.438,0,0,1,.628,4.014,21.268,21.268,0,0,0-1.341,3.238,3.433,3.433,0,0,1-3.282,2.4H8.665a.684.684,0,0,0-.686.605,28.467,28.467,0,0,0,0,7.059.682.682,0,0,0,.685.605h3.72a3.437,3.437,0,0,1,3.283,2.4,21.231,21.231,0,0,0,1.34,3.238,3.436,3.436,0,0,1-.628,4.015l-2.63,2.63a.685.685,0,0,0-.057.913,28.437,28.437,0,0,0,4.991,4.99.682.682,0,0,0,.913-.056l2.63-2.63A3.418,3.418,0,0,1,24.654,54.624Zm11.355-6.9a11.714,11.714,0,1,1,8.283-3.431A11.64,11.64,0,0,1,36.009,47.724Zm0-20.672a8.959,8.959,0,1,0,6.334,2.624A8.9,8.9,0,0,0,36.009,27.052Z" transform="translate(-4.751 -4.751)" fill="#002738" stroke="#fff" stroke-width="0.5"/>
</svg>
