<svg xmlns="http://www.w3.org/2000/svg" width="61.822" height="45.102" viewBox="0 0 61.822 45.102">
  <g id="noun_Eye_1825607" transform="translate(-1.106 -4.998)">
    <path id="Path_37" data-name="Path 37" d="M61.452,25.2A31.415,31.415,0,0,0,32.02,6,31.415,31.415,0,0,0,2.587,25.2a6.27,6.27,0,0,0,0,4.719A31.415,31.415,0,0,0,32.02,49.1,31.415,31.415,0,0,0,61.452,29.9a6.27,6.27,0,0,0,0-4.7Zm-3.986,3.081a27.127,27.127,0,0,1-25.447,16.5,27.127,27.127,0,0,1-25.447-16.5,1.939,1.939,0,0,1,0-1.444A27.127,27.127,0,0,1,32.02,10.311a27.127,27.127,0,0,1,25.447,16.5A1.939,1.939,0,0,1,57.466,28.281Z" transform="translate(0 0)" fill="#002738" stroke="#eaf9ff" stroke-width="2"/>
    <path id="Path_38" data-name="Path 38" d="M21.774,11a10.775,10.775,0,0,0-2.867.388,2.156,2.156,0,0,0,1.143,4.158,6.464,6.464,0,1,1-4.5,4.5,2.156,2.156,0,1,0-4.158-1.142A10.773,10.773,0,1,0,21.774,11Z" transform="translate(10.246 5.775)" fill="#002738" stroke="#eaf9ff" stroke-width="2"/>
  </g>
</svg>
