<svg xmlns="http://www.w3.org/2000/svg" width="19.891" height="19.881" viewBox="0 0 19.891 19.881">
  <g id="noun_Phone_2257221_000000" transform="translate(-62.325 -62.156)">
    <path id="Path_56" data-name="Path 56" d="M88.673,89.926c-1.964,1.964-6.96.16-11.161-4.042s-6-9.192-4.037-11.156l2.036-2.036a.912.912,0,0,1,1.289,0l2.078,2.078a.912.912,0,0,1,0,1.289L77.46,77.476c-1.093,1.093-.134,3.872,2.2,6.207s5.166,3.346,6.259,2.253l1.418-1.418a.912.912,0,0,1,1.289,0L90.7,86.6a.912.912,0,0,1,0,1.289Z" transform="translate(-9.585 -9.449)" fill="none" stroke="#fff" stroke-width="0.5"/>
    <g id="Group_25" data-name="Group 25" transform="translate(62.574 62.463)">
      <path id="Path_57" data-name="Path 57" d="M78.727,80.111a1.076,1.076,0,0,1-.113.1c-.015.015-.108.088-.067.057s-.072.052-.088.062l-.129.082a2.4,2.4,0,0,1-.258.129c.088-.041-.036.01-.067.026-.052.021-.1.036-.155.052-.1.031-.2.052-.294.072l-.165.031c-.005,0-.082.01-.031.005l-.057.005a5.326,5.326,0,0,1-.7.015,6.276,6.276,0,0,1-1.5-.273,10.387,10.387,0,0,1-1.681-.65,20.1,20.1,0,0,1-7.016-5.887,16.1,16.1,0,0,1-2.139-3.6,7.066,7.066,0,0,1-.65-3.1c.005-.057.01-.119.015-.175a.3.3,0,0,1,.01-.072c0,.01-.01.077,0,.015a2.5,2.5,0,0,1,.067-.33,2.672,2.672,0,0,1,.088-.289c.01-.026.057-.149.041-.108a.965.965,0,0,0,.046-.1,1.943,1.943,0,0,1,.144-.247c.026-.041.057-.082.088-.124-.057.077.021-.026.041-.046.057-.067.124-.129.186-.191l1.665-1.665c.155-.155.335-.407.572-.407s.423.258.577.412l1.681,1.681c.2.2.309.423.1.665s-.449.449-.67.67a3.607,3.607,0,0,0-1.294,1.825,5.324,5.324,0,0,0,.892,3.47,12.289,12.289,0,0,0,3.212,3.552,7.716,7.716,0,0,0,3.64,1.65,2.714,2.714,0,0,0,1.485-.206,2.625,2.625,0,0,0,.727-.577l.9-.9c.186-.186.392-.485.686-.4.2.057.387.309.526.454l.923.923.737.737a.429.429,0,0,1,.062.644c-.49.536-1.031,1.031-1.547,1.547-.175.15-.335.309-.495.469a.514.514,0,0,0,.727.727l1.521-1.521c.18-.18.366-.351.536-.541a1.455,1.455,0,0,0-.031-2c-.51-.541-1.057-1.057-1.588-1.588-.186-.186-.366-.392-.572-.562a1.449,1.449,0,0,0-1.949.088c-.49.464-.954.959-1.433,1.433a.334.334,0,0,1-.046.041c-.057.052.067-.046,0,0a1.235,1.235,0,0,1-.108.067c-.031.015-.144.072-.057.036-.057.021-.113.041-.17.057s-.108.026-.16.036c-.113.026.005.005-.082.01a2.893,2.893,0,0,1-.366.005,4.677,4.677,0,0,1-1.567-.433,10.8,10.8,0,0,1-3.707-2.949,9.305,9.305,0,0,1-1.237-1.907,5.631,5.631,0,0,1-.33-.845,3.949,3.949,0,0,1-.155-.748,2.972,2.972,0,0,1-.005-.371c.005-.052.005-.1.01-.15-.01.093.015-.072.021-.1.01-.052.031-.1.046-.155.005-.021.015-.041.021-.067-.031.088-.01.021,0,0,.021-.041.041-.077.062-.119.015-.026.108-.155.046-.072.2-.237.438-.443.655-.66.273-.273.546-.541.815-.815a1.45,1.45,0,0,0,.211-1.835,5.077,5.077,0,0,0-.6-.644l-.969-.969c-.222-.222-.438-.449-.665-.665a1.443,1.443,0,0,0-1.871-.155,5.509,5.509,0,0,0-.613.588l-.995.995a4.982,4.982,0,0,0-1.294,1.7,5.365,5.365,0,0,0-.036,3.109,13.109,13.109,0,0,0,1.639,3.743,21.93,21.93,0,0,0,6.955,7,13.277,13.277,0,0,0,3.753,1.681,5.471,5.471,0,0,0,3.14.01,3.225,3.225,0,0,0,1.175-.722C79.929,80.379,79.2,79.647,78.727,80.111Z" transform="translate(-62.574 -62.463)" fill="none" stroke="#fff" stroke-width="0.5"/>
    </g>
  </g>
</svg>
