<svg xmlns="http://www.w3.org/2000/svg" width="23.054" height="23.054" viewBox="0 0 23.054 23.054">
  <g id="noun_Project_2962999" transform="translate(-4.9 -4.9)">
    <path id="Path_17" data-name="Path 17" d="M5.653,27.854H19.366a.653.653,0,0,0,.653-.653V9.571a.653.653,0,0,0-.653-.653H17.407V8.265a.653.653,0,0,0-.653-.653H15.709a3.265,3.265,0,0,0-6.4,0H8.265a.653.653,0,0,0-.653.653v.653H5.653A.653.653,0,0,0,5,9.571V27.2A.653.653,0,0,0,5.653,27.854ZM8.918,8.918H9.9a.653.653,0,0,0,.653-.653,1.959,1.959,0,1,1,3.918,0,.653.653,0,0,0,.653.653H16.1v1.306H8.918ZM6.306,10.224H7.612v.653a.653.653,0,0,0,.653.653h8.489a.653.653,0,0,0,.653-.653v-.653h1.306V26.548H6.306Z" transform="translate(0 0)" fill="#002738" stroke="#002738" stroke-width="0.2"/>
    <path id="Path_18" data-name="Path 18" d="M63.285,5A2.288,2.288,0,0,0,61,7.285V23.936a.654.654,0,0,0,.069.292L62.7,27.493a.653.653,0,0,0,1.168,0L65.5,24.228a.654.654,0,0,0,.069-.292V7.285A2.288,2.288,0,0,0,63.285,5Zm0,1.306a.981.981,0,0,1,.979.979v.979H62.306V7.285A.981.981,0,0,1,63.285,6.306Zm-.979,16.977V9.571h1.959V23.283Zm.979,2.458-.576-1.152h1.152Z" transform="translate(-37.717 0)" fill="#002738" stroke="#002738" stroke-width="0.2"/>
  </g>
</svg>
