<svg xmlns="http://www.w3.org/2000/svg" width="52.3" height="52.3" viewBox="0 0 52.3 52.3">
  <g id="noun_hierarchy_1239634" transform="translate(-2.35 -2.35)">
    <g id="Group_2" data-name="Group 2" transform="translate(2.5 2.5)">
      <path id="Path_4" data-name="Path 4" d="M27.2,11.6a9.1,9.1,0,1,0-9.1,9.1A9.11,9.11,0,0,0,27.2,11.6Zm-15.6,0a6.5,6.5,0,1,1,6.5,6.5A6.507,6.507,0,0,1,11.6,11.6Z" transform="translate(7.9 -2.5)" fill="#002738" stroke="#fff" stroke-width="0.3"/>
      <path id="Path_5" data-name="Path 5" d="M44.8,26.1a1.3,1.3,0,0,0,1.3-1.3v-13a1.3,1.3,0,0,0-1.3-1.3H5.8a1.3,1.3,0,0,0-1.3,1.3v13a1.3,1.3,0,0,0,2.6,0V13.1H24V24.8a1.3,1.3,0,1,0,2.6,0V13.1H43.5V24.8A1.3,1.3,0,0,0,44.8,26.1Z" transform="translate(0.7 10.3)" fill="#002738" stroke="#fff" stroke-width="0.3"/>
      <path id="Path_6" data-name="Path 6" d="M24,17.5A6.5,6.5,0,1,0,30.5,24,6.507,6.507,0,0,0,24,17.5Zm0,10.4A3.9,3.9,0,1,1,27.9,24,3.9,3.9,0,0,1,24,27.9Z" transform="translate(21.5 21.5)" fill="#002738" stroke="#fff" stroke-width="0.3"/>
      <path id="Path_7" data-name="Path 7" d="M9,17.5A6.5,6.5,0,1,0,15.5,24,6.507,6.507,0,0,0,9,17.5ZM9,27.9A3.9,3.9,0,1,1,12.9,24,3.9,3.9,0,0,1,9,27.9Z" transform="translate(-2.5 21.5)" fill="#002738" stroke="#fff" stroke-width="0.3"/>
      <path id="Path_8" data-name="Path 8" d="M16.5,17.5A6.5,6.5,0,1,0,23,24,6.507,6.507,0,0,0,16.5,17.5Zm0,10.4A3.9,3.9,0,1,1,20.4,24,3.9,3.9,0,0,1,16.5,27.9Z" transform="translate(9.5 21.5)" fill="#002738" stroke="#fff" stroke-width="0.3"/>
    </g>
  </g>
</svg>
