<svg xmlns="http://www.w3.org/2000/svg" width="12.484" height="12.485" viewBox="0 0 12.484 12.485">
  <g id="noun_Tag_887307" transform="translate(0.499 0.501)">
    <path id="Path_103" data-name="Path 103" d="M10.008,0,6.3,0a1.474,1.474,0,0,0-1,.429L.432,5.3a1.493,1.493,0,0,0,0,2.1l3.655,3.655a1.492,1.492,0,0,0,2.1,0l4.874-4.874a1.469,1.469,0,0,0,.428-.995V1.478A1.483,1.483,0,0,0,10.008,0ZM8.779,4.059a1.353,1.353,0,1,1,1.353-1.353A1.354,1.354,0,0,1,8.779,4.059Z" transform="translate(0)" fill="none" stroke="#002738" stroke-width="1"/>
  </g>
</svg>
