<svg xmlns="http://www.w3.org/2000/svg" width="49.721" height="49.721" viewBox="0 0 49.721 49.721">
  <g id="noun_timer_235434" transform="translate(-9.888 -9.612)">
    <path id="Path_39" data-name="Path 39" d="M34.749,58.833a24.361,24.361,0,1,0,0-48.721,1.833,1.833,0,0,0-1.833,1.833v9.39a1.833,1.833,0,1,0,3.665,0V13.858a20.693,20.693,0,1,1-14.022,3.888,1.833,1.833,0,1,0-2.161-2.96A24.362,24.362,0,0,0,34.749,58.833Z" fill="#002738" stroke="#fff" stroke-width="1"/>
    <path id="Path_40" data-name="Path 40" d="M30.014,38.143a1.832,1.832,0,0,0,.662,2.506l10.232,5.96a1.833,1.833,0,0,0,1.844-3.167L32.52,37.481A1.833,1.833,0,0,0,30.014,38.143Z" transform="translate(-7.54 -10.553)" fill="#002738" stroke="#fff" stroke-width="1"/>
  </g>
</svg>
